<svg width="90%" height="60%" viewBox="0 0 3757 1000" fill="none" xmlns="http://www.w3.org/2000/svg">
<g filter="url(#filter0_i_37_11)">
<rect width="1000" height="1000" rx="208" fill="url(#paint0_linear_37_11)"/>
<g filter="url(#filter1_di_37_11)">
<rect x="50" y="50" width="900" height="900" rx="172" fill="url(#paint1_linear_37_11)"/>
</g>
<g filter="url(#filter2_d_37_11)">
<path fill-rule="evenodd" clip-rule="evenodd" d="M531.234 230H529.795L528.359 230.103L472.859 234.103L470.488 234.274L468.155 234.725L411.155 245.725L408.988 246.143L406.881 246.797C369.452 258.409 352.758 267.408 338.293 275.205C333.347 277.87 328.662 280.396 323.498 282.837L321.608 283.73L319.823 284.816C288.698 303.727 257.311 327.824 234.416 361.519C230.921 366.661 227.742 371.689 224.825 376.592C221.472 379.916 218.655 383.895 216.586 388.448C212.816 396.741 209.247 405.031 205.918 413.277C204.244 416.952 202.661 420.513 201.131 423.952L201.13 423.953C198.794 429.205 196.584 434.174 194.369 438.838C191.561 444.749 190.331 451.003 190.508 457.124C184.151 478.752 180.097 499.491 179.144 518.495C178.463 532.065 176.92 564.005 179.215 583.934C181.347 625.32 188.893 660.874 203.939 693.632C219.137 726.723 240.952 754.699 268.45 781.925C284.149 797.468 309.475 797.342 325.018 781.643C340.561 765.945 340.435 740.618 324.737 725.075C301.734 702.301 286.643 682.027 276.638 660.243C266.662 638.524 260.708 613.043 259.047 578.575L258.967 576.903L258.747 575.245C257.307 564.38 258.201 539.282 259.043 522.505C260.001 503.421 266.619 477.152 279.11 445.706C285.054 432.537 290.641 421.115 300.585 406.481C314.125 386.555 334.173 369.9 359.672 354.219C368.155 350.152 374.125 346.919 379.449 344.036L379.449 344.036L379.449 344.036L379.449 344.036C391.674 337.415 400.493 332.639 428.51 323.851L480.98 313.726L532.658 310.001C567.197 310.055 581.269 312.095 603.681 315.344L603.682 315.344C608.129 315.989 612.904 316.681 618.233 317.414C628.545 319.657 635.825 320.959 641.973 322.059L641.974 322.059C652.419 323.927 659.598 325.211 672.828 329.527L673.624 329.787L674.43 330.013C700.251 337.257 706.628 340.208 728.02 351.314L742.13 361.113L750.124 368.064C756.167 374.894 758.62 378.994 762.005 386.843C767.864 400.426 769.059 412.189 768.062 424.1C763.505 439.398 753.285 447.028 750.322 449.032C743.713 453.503 739.553 455.545 735.341 456.846C730.922 458.211 724.283 459.413 712.3 459.501C685.845 459.695 652.411 455.676 640.152 452.659C622.312 448.268 584.584 441.088 553.798 437.048L551.207 436.708H548.593C546.647 436.708 544.487 436.674 542.146 436.637L542.136 436.637L542.131 436.636C526.364 436.387 502.36 436.007 479.782 445.007C425.415 466.678 382.157 512.267 371.872 573.032C370.28 582.434 369.593 593.591 369.593 602.208C369.593 648.915 390.771 677.894 408.669 697.197C430.325 720.553 459.515 732.149 490.278 737.56C539.035 737.967 597.18 713.858 612.384 661.405C595.753 662.34 586.055 663.397 579.33 664.13C576.67 664.42 574.475 664.659 572.5 664.82C565.669 665.377 559.598 665.379 514.517 660.256C487.137 657.145 473.934 649.924 467.332 642.803C461.414 636.421 457.254 630.95 454.395 625.058C454.084 624.417 453.781 623.755 453.488 623.069L618.518 635.759C649.994 625.451 687.637 599.499 707.76 562.386L472.004 544.257C481.699 533.908 494.317 525.334 509.404 519.32C516.187 516.617 522.619 516.637 539.822 516.69C541.72 516.696 543.748 516.703 545.923 516.706C573.754 520.477 606.919 526.867 621.034 530.341C641.163 535.295 681.438 539.73 712.887 539.499C729.856 539.374 744.787 537.658 758.951 533.283C773.321 528.844 784.755 522.324 795.147 515.295C803.366 509.735 823.432 494.445 836.966 466.944C841.267 461.736 844.305 455.367 845.523 448.232C846.064 445.06 846.559 441.789 846.978 438.423C847.955 434.061 848.744 429.499 849.312 424.733C849.939 419.475 849.515 414.333 848.207 409.518C847.441 392.969 843.928 374.782 835.463 355.157C828.169 338.248 820.679 326.725 807.832 312.593L806.253 310.856L804.481 309.316L792.981 299.316L791.338 297.887L789.55 296.645L771.55 284.145L769.453 282.689L767.188 281.511C740.636 267.704 729.506 262.41 696.821 253.207C679.05 247.473 664.056 244.705 650.506 242.204C644.721 241.136 639.199 240.117 633.836 238.936L632.249 238.586L630.639 238.367C625.279 237.636 620.328 236.917 615.571 236.225C591.724 232.761 572.723 230 531.234 230Z" fill="#F5F6F8"/>
</g>
<path d="M1198.5 612V702H1338V762H1128.5V412H1338V472H1198.5V552H1308V612H1198.5ZM1466.41 570.5V703.5H1590.41V762H1455.91L1397.91 728.5V545.5L1455.91 512H1590.41V570.5H1466.41ZM1723.74 762H1655.24V397H1723.74V530L1759.24 509.5H1824.74L1882.74 543V762H1814.24V568H1723.74V762ZM2180.47 731L2122.47 764.5H2015.97L1957.97 731V543L2015.97 509.5H2122.47L2180.47 543V731ZM2026.47 568V706H2111.97V568H2026.47ZM2447.84 659.5H2517.84V731L2459.84 764.5H2318.34L2260.34 731V443L2318.34 409.5H2459.84L2517.84 443V514.5H2447.84V469.5H2330.34V704.5H2447.84V659.5ZM2892.24 762V531H2891.24L2812.24 762H2745.74L2666.24 528H2665.24V762H2597.74V412H2690.74L2778.74 669.5H2779.74L2867.24 412H2959.74V762H2892.24ZM3044.52 584.5V443L3102.52 409.5H3229.02L3287.02 443V509.5H3217.02V469.5H3114.52V553H3229.02L3287.02 586.5V731L3229.02 764.5H3097.52L3039.52 731V664.5H3109.52V704.5H3217.02V618H3102.52L3044.52 584.5Z" fill="url(#paint2_linear_37_11)"/>
</g>
<defs>
<filter id="filter0_i_37_11" x="-30" y="0" width="3317.02" height="1010" filterUnits="userSpaceOnUse" color-interpolation-filters="sRGB">
<feFlood flood-opacity="0" result="BackgroundImageFix"/>
<feBlend mode="normal" in="SourceGraphic" in2="BackgroundImageFix" result="shape"/>
<feColorMatrix in="SourceAlpha" type="matrix" values="0 0 0 0 0 0 0 0 0 0 0 0 0 0 0 0 0 0 127 0" result="hardAlpha"/>
<feOffset dx="-30" dy="10"/>
<feGaussianBlur stdDeviation="15"/>
<feComposite in2="hardAlpha" operator="arithmetic" k2="-1" k3="1"/>
<feColorMatrix type="matrix" values="0 0 0 0 0 0 0 0 0 0 0 0 0 0 0 0 0 0 0.4 0"/>
<feBlend mode="normal" in2="shape" result="effect1_innerShadow_37_11"/>
</filter>
<filter id="filter1_di_37_11" x="20" y="28" width="968" height="960" filterUnits="userSpaceOnUse" color-interpolation-filters="sRGB">
<feFlood flood-opacity="0" result="BackgroundImageFix"/>
<feColorMatrix in="SourceAlpha" type="matrix" values="0 0 0 0 0 0 0 0 0 0 0 0 0 0 0 0 0 0 127 0" result="hardAlpha"/>
<feOffset dx="8" dy="8"/>
<feGaussianBlur stdDeviation="15"/>
<feComposite in2="hardAlpha" operator="out"/>
<feColorMatrix type="matrix" values="0 0 0 0 0 0 0 0 0 0 0 0 0 0 0 0 0 0 0.4 0"/>
<feBlend mode="normal" in2="BackgroundImageFix" result="effect1_dropShadow_37_11"/>
<feBlend mode="normal" in="SourceGraphic" in2="effect1_dropShadow_37_11" result="shape"/>
<feColorMatrix in="SourceAlpha" type="matrix" values="0 0 0 0 0 0 0 0 0 0 0 0 0 0 0 0 0 0 127 0" result="hardAlpha"/>
<feOffset dx="-30" dy="30"/>
<feGaussianBlur stdDeviation="125"/>
<feComposite in2="hardAlpha" operator="arithmetic" k2="-1" k3="1"/>
<feColorMatrix type="matrix" values="0 0 0 0 0 0 0 0 0 0 0 0 0 0 0 0 0 0 0.4 0"/>
<feBlend mode="normal" in2="shape" result="effect2_innerShadow_37_11"/>
</filter>
<filter id="filter2_d_37_11" x="38.002" y="160" width="851.596" height="743.5" filterUnits="userSpaceOnUse" color-interpolation-filters="sRGB">
<feFlood flood-opacity="0" result="BackgroundImageFix"/>
<feColorMatrix in="SourceAlpha" type="matrix" values="0 0 0 0 0 0 0 0 0 0 0 0 0 0 0 0 0 0 127 0" result="hardAlpha"/>
<feOffset dx="-50" dy="20"/>
<feGaussianBlur stdDeviation="45"/>
<feComposite in2="hardAlpha" operator="out"/>
<feColorMatrix type="matrix" values="0 0 0 0 0 0 0 0 0 0 0 0 0 0 0 0 0 0 0.8 0"/>
<feBlend mode="normal" in2="BackgroundImageFix" result="effect1_dropShadow_37_11"/>
<feBlend mode="normal" in="SourceGraphic" in2="effect1_dropShadow_37_11" result="shape"/>
</filter>
<linearGradient id="paint0_linear_37_11" x1="33" y1="299" x2="2134" y2="645.5" gradientUnits="userSpaceOnUse">
<stop stop-color="#385561"/>
<stop offset="1" stop-color="#ABC3C8"/>
</linearGradient>
<linearGradient id="paint1_linear_37_11" x1="1121.5" y1="1185.5" x2="1.50002" y2="155" gradientUnits="userSpaceOnUse">
<stop stop-color="#75989F"/>
<stop offset="1" stop-color="#335056"/>
</linearGradient>
<linearGradient id="paint2_linear_37_11" x1="1086" y1="502" x2="3757" y2="502" gradientUnits="userSpaceOnUse">
<stop stop-color="#335056"/>
<stop offset="1" stop-color="#568792"/>
</linearGradient>
</defs>
</svg>
