<svg width="20" height="20" viewBox="0 0 22 22" fill="none" xmlns="http://www.w3.org/2000/svg">
<path d="M4.00787 18.2054V12.4551C4.00787 11.6245 3.33453 10.9512 2.50393 10.9512C1.67333 10.9512 1 11.6245 1 12.4551V18.2054C1 19.036 1.67333 19.7094 2.50393 19.7094C3.33453 19.7094 4.00787 19.036 4.00787 18.2054Z" stroke="#3D5571" stroke-width="1.8" stroke-linecap="round"/>
<path d="M6.00293 10.9872L7.91293 9.23507C9.60267 7.6201 10.3972 6.68837 11.5965 4.98612C11.8926 4.47242 12.0825 4.05777 12.5515 2.62073V2.62073C13.127 1.38961 14.846 1.69712 15.1821 3.01391C15.2506 3.28222 15.3047 3.58299 15.3483 3.93484C15.3889 4.88596 15.3475 5.45321 15.092 6.36951C15.052 6.51293 14.9942 6.65092 14.9231 6.78177V6.78177C14.1507 8.20464 15.1809 9.93593 16.7998 9.93593H18.9987C19.3219 9.93593 19.6429 9.98816 19.9495 10.0906L20.0359 10.1195C20.4089 10.2441 20.806 10.4218 20.9337 10.7937C21.0425 11.1108 21.0123 11.4856 20.8849 11.9004C20.8283 12.0848 20.7261 12.251 20.6029 12.3993V12.3993C20.2966 12.7681 20.1512 13.2445 20.1993 13.7215L20.2062 13.7903C20.2552 14.276 20.1347 14.774 19.8173 15.1449C19.7423 15.2326 19.6662 15.3148 19.5756 15.4061C19.4584 15.5242 19.3484 15.6525 19.2835 15.8056C19.1946 16.0155 19.1623 16.206 19.182 16.3889C19.2288 16.8231 19.0089 17.6801 18.7561 18.0362V18.0362C18.5071 18.3869 18.5568 18.4706 18.5568 18.9008V19.1001C18.5568 19.1713 18.5507 19.2427 18.5373 19.3125C18.3824 20.1196 18.2089 20.2642 17.5436 20.6824C16.9077 21.001 16.5331 21.0071 14.8956 20.9978C14.7285 20.9968 14.5602 20.9818 14.3955 20.9531C12.3818 20.6025 11.2386 20.4165 9.36818 20.1641C9.14318 20.1257 8.93616 20.0917 8.74227 20.0612C7.20196 19.8188 6.00293 18.5492 6.00293 16.99V11.25" stroke="#3D5571" stroke-width="1.8" stroke-linecap="round"/>
</svg>
