<svg width="20" height="20" viewBox="0 0 22 22" fill="none" xmlns="http://www.w3.org/2000/svg">
<g clip-path="url(#clip0_43_401)">
<path d="M18.3187 15.8414H3.68131C2.96105 15.6511 2.62312 15.4911 2.20649 15.0535C1.88813 14.4109 1.90132 13.9907 2.50589 13.0599C3.43738 12.0726 3.10471 12.6707 4.30229 11.3606C5.12287 10.1075 5.39821 8.56655 5.12287 6.78491C5.18568 5.3238 5.42596 4.69231 6.14305 3.83253C7.01894 2.89666 7.69276 2.55942 9.1038 2.17122C9.13341 1.61484 9.32883 1.32938 10.0796 0.880148C10.8363 0.648078 11.2441 0.644072 11.9204 0.880148C12.6712 1.32938 12.8666 1.61484 12.8962 2.17122C14.3072 2.55942 14.9811 2.89666 15.8569 3.83253C16.574 4.69231 16.8143 5.3238 16.8771 6.78491C16.6018 8.56655 16.8771 10.1075 17.6977 11.3606C18.8953 12.6707 18.5626 12.0726 19.4941 13.0599C20.0987 13.9907 20.1119 14.4109 19.7935 15.0535C19.3769 15.4911 19.0389 15.6511 18.3187 15.8414Z" stroke="#3D5571" stroke-width="1.8"/>
<path d="M14.4009 17.7837C14.4009 19.5666 12.6951 21.0119 10.5908 21.0119C8.48658 21.0119 6.78076 19.5666 6.78076 17.7837" stroke="#3D5571" stroke-width="2" stroke-linecap="round"/>
</g>
<defs>
<clipPath id="clip0_43_401">
<rect width="22" height="22" fill="white"/>
</clipPath>
</defs>
</svg>
