<svg width="140" height="46" viewBox="0 0 140 46" fill="none" xmlns="http://www.w3.org/2000/svg">
<rect x="1.5" y="3.62305" width="137" height="40.1692" rx="14.5" stroke="#3d55719d" stroke-width="3"/>
<path d="M23.3682 15.3594V31H20.2207V15.3594H23.3682ZM28.2666 22.0088V24.6084H22.5732V22.0088H28.2666ZM28.8682 15.3594V17.9697H22.5732V15.3594H28.8682ZM35.3135 28.3252V22.9541C35.3135 22.6032 35.2705 22.3239 35.1846 22.1162C35.1058 21.9085 34.984 21.7581 34.8193 21.665C34.6618 21.5648 34.4684 21.5146 34.2393 21.5146C33.9814 21.5146 33.7666 21.5684 33.5947 21.6758C33.4229 21.7832 33.2939 21.9372 33.208 22.1377C33.1292 22.3382 33.0898 22.5781 33.0898 22.8574H30.0713C30.0713 22.3561 30.168 21.8835 30.3613 21.4395C30.5547 20.9883 30.8376 20.5944 31.21 20.2578C31.5895 19.9141 32.0407 19.6455 32.5635 19.4521C33.0863 19.2588 33.6735 19.1621 34.3252 19.1621C35.0986 19.1621 35.7861 19.2946 36.3877 19.5596C36.9893 19.8174 37.4655 20.2292 37.8164 20.7949C38.1673 21.3607 38.3428 22.0947 38.3428 22.9971V28.1748C38.3428 28.8265 38.375 29.3564 38.4395 29.7646C38.5111 30.1729 38.6149 30.5238 38.751 30.8174V31H35.7217C35.5856 30.6777 35.4818 30.2767 35.4102 29.7969C35.3457 29.3099 35.3135 28.8193 35.3135 28.3252ZM35.6787 23.8994L35.6895 25.7041H34.583C34.2965 25.7041 34.0459 25.7507 33.8311 25.8438C33.6234 25.9368 33.4479 26.0693 33.3047 26.2412C33.1615 26.4059 33.054 26.5993 32.9824 26.8213C32.918 27.0433 32.8857 27.2796 32.8857 27.5303C32.8857 27.8096 32.9251 28.0459 33.0039 28.2393C33.0827 28.4326 33.2008 28.5794 33.3584 28.6797C33.516 28.7799 33.7021 28.8301 33.917 28.8301C34.2464 28.8301 34.5329 28.762 34.7764 28.626C35.0199 28.4899 35.1989 28.3252 35.3135 28.1318C35.4352 27.9385 35.4746 27.7594 35.4316 27.5947L36.1191 28.7656C36.0332 29.0306 35.915 29.3063 35.7646 29.5928C35.6214 29.8792 35.4388 30.1442 35.2168 30.3877C34.9948 30.6312 34.7191 30.8317 34.3896 30.9893C34.0674 31.1396 33.6842 31.2148 33.2402 31.2148C32.6172 31.2148 32.0479 31.0716 31.5322 30.7852C31.0166 30.4987 30.6084 30.0977 30.3076 29.582C30.014 29.0664 29.8672 28.4541 29.8672 27.7451C29.8672 27.1579 29.9603 26.6279 30.1465 26.1553C30.3398 25.6755 30.6263 25.2708 31.0059 24.9414C31.3854 24.6048 31.8652 24.347 32.4453 24.168C33.0254 23.9889 33.7057 23.8994 34.4863 23.8994H35.6787ZM48.5156 28.4971V31H41.1357V28.4971H48.5156ZM48.4404 21.2031L42.3174 31H40.3086V29.1094L46.3994 19.377H48.4404V21.2031ZM47.3877 19.377V21.8799H40.4268V19.377H47.3877ZM55.0254 31.2148C54.2305 31.2148 53.5251 31.0931 52.9092 30.8496C52.3005 30.6061 51.7848 30.2552 51.3623 29.7969C50.9398 29.3314 50.6175 28.7692 50.3955 28.1104C50.1735 27.4515 50.0625 26.6995 50.0625 25.8545V24.8984C50.0625 23.9531 50.1699 23.126 50.3848 22.417C50.5996 21.7008 50.904 21.0993 51.2979 20.6123C51.6917 20.1253 52.1751 19.7637 52.748 19.5273C53.3281 19.2839 53.9834 19.1621 54.7139 19.1621C55.4443 19.1621 56.0853 19.2839 56.6367 19.5273C57.1953 19.7637 57.6572 20.1217 58.0225 20.6016C58.3877 21.0742 58.6634 21.6615 58.8496 22.3633C59.0358 23.0651 59.1289 23.8815 59.1289 24.8125V26.1875H51.3408V24.0713H56.1748V23.8027C56.1748 23.3301 56.1247 22.9362 56.0244 22.6211C55.9242 22.2988 55.7666 22.0589 55.5518 21.9014C55.3369 21.7438 55.0505 21.665 54.6924 21.665C54.3916 21.665 54.1374 21.7259 53.9297 21.8477C53.722 21.9694 53.5573 22.1592 53.4355 22.417C53.3138 22.6748 53.2243 23.0114 53.167 23.4268C53.1097 23.835 53.0811 24.3255 53.0811 24.8984V25.8545C53.0811 26.3916 53.1276 26.8428 53.2207 27.208C53.3138 27.5661 53.4499 27.8597 53.6289 28.0889C53.8151 28.3109 54.0407 28.472 54.3057 28.5723C54.5706 28.6654 54.8786 28.7119 55.2295 28.7119C55.7594 28.7119 56.2357 28.6188 56.6582 28.4326C57.0879 28.2393 57.4531 27.9779 57.7539 27.6484L58.957 29.4746C58.7493 29.7467 58.4629 30.0189 58.0977 30.291C57.7324 30.5632 57.2956 30.7852 56.7871 30.957C56.2786 31.1289 55.6914 31.2148 55.0254 31.2148ZM63.877 21.9658V31H60.8691V19.377H63.7051L63.877 21.9658ZM66.6162 19.291L66.5732 22.2881C66.4372 22.2594 66.2725 22.238 66.0791 22.2236C65.8929 22.2093 65.7282 22.2021 65.585 22.2021C65.2484 22.2021 64.9619 22.2559 64.7256 22.3633C64.4893 22.4635 64.2923 22.6175 64.1348 22.8252C63.9844 23.0257 63.8698 23.2764 63.791 23.5771C63.7122 23.8779 63.6657 24.2181 63.6514 24.5977L63.082 24.3828C63.082 23.6237 63.1393 22.929 63.2539 22.2988C63.3757 21.6615 63.5547 21.11 63.791 20.6445C64.0273 20.1719 64.3102 19.8066 64.6396 19.5488C64.9762 19.291 65.3558 19.1621 65.7783 19.1621C65.9215 19.1621 66.0719 19.1764 66.2295 19.2051C66.3942 19.2266 66.5231 19.2552 66.6162 19.291ZM82.0527 28.4004V31H75.5537V28.4004H82.0527ZM76.5205 15.3594V31H73.373V15.3594H76.5205ZM83.4062 25.5859V24.8018C83.4062 23.8923 83.5137 23.0866 83.7285 22.3848C83.9505 21.6829 84.2656 21.0957 84.6738 20.623C85.082 20.1432 85.5726 19.7816 86.1455 19.5381C86.7256 19.2874 87.3737 19.1621 88.0898 19.1621C88.8132 19.1621 89.4613 19.2874 90.0342 19.5381C90.6143 19.7816 91.1084 20.1432 91.5166 20.623C91.932 21.0957 92.2507 21.6829 92.4727 22.3848C92.6947 23.0866 92.8057 23.8923 92.8057 24.8018V25.5859C92.8057 26.4883 92.6947 27.2904 92.4727 27.9922C92.2507 28.694 91.932 29.2848 91.5166 29.7646C91.1084 30.2445 90.6178 30.6061 90.0449 30.8496C89.472 31.0931 88.8275 31.2148 88.1113 31.2148C87.3952 31.2148 86.7471 31.0931 86.167 30.8496C85.5941 30.6061 85.0999 30.2445 84.6846 29.7646C84.2692 29.2848 83.9505 28.694 83.7285 27.9922C83.5137 27.2904 83.4062 26.4883 83.4062 25.5859ZM86.4141 24.8018V25.5859C86.4141 26.123 86.4499 26.5885 86.5215 26.9824C86.6003 27.3763 86.7113 27.7021 86.8545 27.96C87.0049 28.2178 87.1839 28.4076 87.3916 28.5293C87.5993 28.651 87.8392 28.7119 88.1113 28.7119C88.3835 28.7119 88.627 28.651 88.8418 28.5293C89.0566 28.4076 89.2321 28.2178 89.3682 27.96C89.5114 27.7021 89.6152 27.3763 89.6797 26.9824C89.7513 26.5885 89.7871 26.123 89.7871 25.5859V24.8018C89.7871 24.279 89.7477 23.8206 89.6689 23.4268C89.5902 23.0257 89.4792 22.6999 89.3359 22.4492C89.1927 22.1914 89.0137 21.998 88.7988 21.8691C88.5911 21.7331 88.3548 21.665 88.0898 21.665C87.8249 21.665 87.5885 21.7331 87.3809 21.8691C87.1803 21.998 87.0049 22.1914 86.8545 22.4492C86.7113 22.6999 86.6003 23.0257 86.5215 23.4268C86.4499 23.8206 86.4141 24.279 86.4141 24.8018ZM100.819 19.377H103.548V31C103.548 32.0599 103.344 32.9264 102.936 33.5996C102.535 34.2799 101.972 34.7777 101.249 35.0928C100.533 35.415 99.695 35.5762 98.7354 35.5762C98.3701 35.5762 97.9583 35.526 97.5 35.4258C97.0488 35.3255 96.612 35.1715 96.1895 34.9639C95.7669 34.7633 95.4196 34.5199 95.1475 34.2334L96.168 32.1494C96.4473 32.4287 96.8125 32.665 97.2637 32.8584C97.7148 33.0589 98.1589 33.1592 98.5957 33.1592C99.0182 33.1592 99.3691 33.0911 99.6484 32.9551C99.9349 32.8262 100.15 32.6042 100.293 32.2891C100.443 31.974 100.519 31.5514 100.519 31.0215V22.0732L100.819 19.377ZM94.3311 25.5967V24.8232C94.3311 23.8779 94.4206 23.0508 94.5996 22.3418C94.7786 21.6328 95.0365 21.042 95.373 20.5693C95.7096 20.0967 96.1214 19.7458 96.6084 19.5166C97.1025 19.2803 97.654 19.1621 98.2627 19.1621C98.9001 19.1621 99.4336 19.3018 99.8633 19.5811C100.293 19.8532 100.64 20.2363 100.905 20.7305C101.177 21.2246 101.385 21.8083 101.528 22.4814C101.679 23.1546 101.793 23.8923 101.872 24.6943V25.8115C101.793 26.5706 101.664 27.2796 101.485 27.9385C101.313 28.5973 101.084 29.1702 100.798 29.6572C100.511 30.1442 100.16 30.5273 99.7451 30.8066C99.3298 31.0788 98.8285 31.2148 98.2412 31.2148C97.6396 31.2148 97.0954 31.0931 96.6084 30.8496C96.1286 30.6061 95.7168 30.248 95.373 29.7754C95.0365 29.2956 94.7786 28.7083 94.5996 28.0137C94.4206 27.3118 94.3311 26.5062 94.3311 25.5967ZM97.3496 24.8232V25.5967C97.3496 26.141 97.3818 26.61 97.4463 27.0039C97.5179 27.3906 97.6253 27.7093 97.7686 27.96C97.9118 28.2035 98.0944 28.3861 98.3164 28.5078C98.5456 28.6224 98.8141 28.6797 99.1221 28.6797C99.5589 28.6797 99.9062 28.5794 100.164 28.3789C100.429 28.1712 100.622 27.8883 100.744 27.5303C100.873 27.165 100.945 26.7461 100.959 26.2734V24.2432C100.952 23.8493 100.905 23.4948 100.819 23.1797C100.741 22.8646 100.63 22.596 100.486 22.374C100.343 22.152 100.157 21.9801 99.9277 21.8584C99.7057 21.7367 99.4443 21.6758 99.1436 21.6758C98.8356 21.6758 98.5706 21.7367 98.3486 21.8584C98.1266 21.9801 97.9404 22.1699 97.79 22.4277C97.6468 22.6784 97.5358 23.0042 97.457 23.4053C97.3854 23.7992 97.3496 24.2718 97.3496 24.8232ZM108.951 19.377V31H105.933V19.377H108.951ZM105.793 16.3691C105.793 15.9036 105.94 15.5205 106.233 15.2197C106.534 14.9118 106.935 14.7578 107.437 14.7578C107.945 14.7578 108.346 14.9118 108.64 15.2197C108.933 15.5205 109.08 15.9036 109.08 16.3691C109.08 16.8275 108.93 17.2106 108.629 17.5186C108.335 17.8193 107.941 17.9697 107.447 17.9697C106.939 17.9697 106.534 17.8193 106.233 17.5186C105.94 17.2106 105.793 16.8275 105.793 16.3691ZM114.29 21.8584V31H111.271V19.377H114.097L114.29 21.8584ZM113.839 24.791L113.033 24.8125C113.019 23.9388 113.101 23.1546 113.28 22.46C113.466 21.7653 113.728 21.1745 114.064 20.6875C114.408 20.1934 114.816 19.8174 115.289 19.5596C115.769 19.2946 116.302 19.1621 116.89 19.1621C117.341 19.1621 117.753 19.2409 118.125 19.3984C118.505 19.556 118.83 19.8066 119.103 20.1504C119.375 20.4941 119.586 20.9525 119.736 21.5254C119.887 22.0911 119.962 22.7858 119.962 23.6094V31H116.943V23.5879C116.943 23.0866 116.893 22.6999 116.793 22.4277C116.693 22.1484 116.542 21.9551 116.342 21.8477C116.141 21.7331 115.891 21.6758 115.59 21.6758C115.303 21.6758 115.049 21.7581 114.827 21.9229C114.605 22.0804 114.419 22.2988 114.269 22.5781C114.125 22.8574 114.014 23.1868 113.936 23.5664C113.864 23.946 113.832 24.3542 113.839 24.791Z" fill="#3d55719d"/>
</svg>
