<svg width="23" height="19" viewBox="-5 -5 39 33" fill="none" xmlns="http://www.w3.org/2000/svg">
<path d="M7.29289 25.5767C7.68342 25.9672 8.31658 25.9672 8.70711 25.5767L15.0711 19.2127C15.4616 18.8222 15.4616 18.189 15.0711 17.7985C14.6805 17.408 14.0474 17.408 13.6569 17.7985L8 23.4554L2.34315 17.7985C1.95262 17.408 1.31946 17.408 0.928932 17.7985C0.538408 18.189 0.538408 18.8222 0.928932 19.2127L7.29289 25.5767ZM7 0L7 24.8696H9L9 0L7 0Z" fill="#3D5571" fill-opacity="0.7"/>
<path d="M23.7071 1.55376C23.3166 1.16324 22.6834 1.16324 22.2929 1.55376L15.9289 7.91772C15.5384 8.30825 15.5384 8.94141 15.9289 9.33194C16.3195 9.72246 16.9526 9.72246 17.3431 9.33194L23 3.67508L28.6569 9.33194C29.0474 9.72246 29.6805 9.72246 30.0711 9.33194C30.4616 8.94141 30.4616 8.30825 30.0711 7.91772L23.7071 1.55376ZM24 26V2.26087H22V26H24Z" fill="#3D5571" fill-opacity="0.7"/>
</svg>
