<svg width="39" height="27" viewBox="0 0 39 27" fill="none" xmlns="http://www.w3.org/2000/svg">
<path fill-rule="evenodd" clip-rule="evenodd" d="M35.5 3H3.5C3.22386 3 3 3.22386 3 3.5C3 3.77614 3.22386 4 3.5 4H35.5C35.7761 4 36 3.77614 36 3.5C36 3.22386 35.7761 3 35.5 3ZM3.5 0C1.567 0 0 1.567 0 3.5C0 5.433 1.567 7 3.5 7H35.5C37.433 7 39 5.433 39 3.5C39 1.567 37.433 0 35.5 0H3.5ZM35.5 13H3.5C3.22386 13 3 13.2239 3 13.5C3 13.7761 3.22386 14 3.5 14H35.5C35.7761 14 36 13.7761 36 13.5C36 13.2239 35.7761 13 35.5 13ZM3.5 10C1.567 10 0 11.567 0 13.5C0 15.433 1.567 17 3.5 17H35.5C37.433 17 39 15.433 39 13.5C39 11.567 37.433 10 35.5 10H3.5ZM3.5 23H35.5C35.7761 23 36 23.2239 36 23.5C36 23.7761 35.7761 24 35.5 24H3.5C3.22386 24 3 23.7761 3 23.5C3 23.2239 3.22386 23 3.5 23ZM0 23.5C0 21.567 1.567 20 3.5 20H35.5C37.433 20 39 21.567 39 23.5C39 25.433 37.433 27 35.5 27H3.5C1.567 27 0 25.433 0 23.5Z" fill="#3D5571"/>
</svg>
