<svg width="31" height="31" viewBox="0 0 31 31" fill="none" xmlns="http://www.w3.org/2000/svg">
<path fill-rule="evenodd" clip-rule="evenodd" d="M3.04663 15.4999C3.04663 8.622 8.62225 3.04639 15.5001 3.04639C22.378 3.04639 27.9536 8.622 27.9536 15.4999C27.9536 22.3777 22.378 27.9534 15.5001 27.9534C8.62225 27.9534 3.04663 22.3777 3.04663 15.4999ZM15.5001 0.0463867C6.96539 0.0463867 0.0466309 6.96515 0.0466309 15.4999C0.0466309 24.0346 6.96539 30.9534 15.5001 30.9534C24.0348 30.9534 30.9536 24.0346 30.9536 15.4999C30.9536 6.96515 24.0348 0.0463867 15.5001 0.0463867ZM16.4764 8.08192L15.5002 7.24519L14.524 8.08192L9.64027 12.268L11.5926 14.5457L14.0002 12.4821V23.5231H17.0002V12.4821L19.4077 14.5457L21.3601 12.268L16.4764 8.08192Z" fill="#3D5571"/>
</svg>
