<svg width="191" height="60" viewBox="0 0 191 60" fill="none" xmlns="http://www.w3.org/2000/svg">
<g filter="url(#filter0_i_95_654)">
<path d="M52.2 0H7.8C3.49218 0 0 3.49218 0 7.8V52.2C0 56.5078 3.49218 60 7.8 60H52.2C56.5078 60 60 56.5078 60 52.2V7.8C60 3.49218 56.5078 0 52.2 0Z" fill="url(#paint0_linear_95_654)"/>
<g filter="url(#filter1_i_95_654)">
<path d="M50.55 3H9.45C5.88776 3 3 5.88776 3 9.45V50.55C3 54.1122 5.88776 57 9.45 57H50.55C54.1122 57 57 54.1122 57 50.55V9.45C57 5.88776 54.1122 3 50.55 3Z" fill="url(#paint1_linear_95_654)"/>
</g>
<g filter="url(#filter2_d_95_654)">
<path fill-rule="evenodd" clip-rule="evenodd" d="M31.8747 14.7002H31.8207L31.7668 14.7041L28.4368 14.9441L28.3479 14.9505L28.2604 14.9674L24.8404 15.6274L24.7592 15.6431L24.6801 15.6676C22.5255 16.3361 21.6187 16.8248 20.7624 17.2862C20.4523 17.4533 20.1489 17.6169 19.7951 17.7841L19.7243 17.8176L19.6573 17.8583C17.844 18.96 16.0818 20.3254 14.81 22.1972C14.5834 22.5306 14.381 22.8535 14.1975 23.1668C14.0393 23.3039 13.9074 23.4764 13.8151 23.6795C13.5886 24.1778 13.3757 24.6732 13.1784 25.1633C13.086 25.3665 12.9973 25.5656 12.9102 25.7613L12.9102 25.7614C12.7642 26.0892 12.6228 26.407 12.4757 26.7166C12.351 26.9792 12.3092 27.2599 12.3399 27.5289C11.9484 28.8273 11.7034 30.0535 11.6481 31.155C11.6053 32.0084 11.519 33.8658 11.6508 34.961C11.7724 37.372 12.207 39.3966 13.0548 41.2423C13.9083 43.1008 15.1415 44.6927 16.7408 46.2759C17.3295 46.8591 18.2793 46.8542 18.8621 46.2654C19.445 45.6767 19.4403 44.7272 18.8516 44.1444C17.4209 42.7277 16.4397 41.4246 15.781 39.9906C15.1234 38.5584 14.7482 36.9112 14.6445 34.758L14.6414 34.6953L14.6332 34.6331C14.5336 33.8813 14.5954 32.2806 14.6443 31.3054C14.7087 30.0218 15.1445 28.3329 15.923 26.3795C16.2922 25.5632 16.6612 24.8105 17.2913 23.8832C18.2112 22.5295 19.5467 21.4431 21.1505 20.4615C21.6306 20.2323 21.9825 20.0422 22.3059 19.8674L22.306 19.8673C23.0777 19.4502 23.6876 19.1206 25.4909 18.5572L28.7414 17.9299L31.9283 17.7002C34.0905 17.7023 34.9899 17.8328 36.3558 18.0308C36.6309 18.0707 36.9249 18.1133 37.252 18.1582C37.8176 18.2816 38.2447 18.3587 38.6201 18.4266C39.2947 18.5484 39.8032 18.6402 40.6492 18.9162L40.6792 18.926L40.7096 18.9344C42.3525 19.3954 42.7818 19.5973 44.148 20.3069L45.0821 20.9557L45.642 21.4425C46.0946 21.9482 46.2975 22.2753 46.5472 22.8543C46.9867 23.8726 47.0557 24.7589 46.9728 25.6138C46.6312 26.872 45.7878 27.5093 45.5242 27.6876C45.0851 27.9846 44.7536 28.1575 44.3868 28.2709C44.0118 28.3866 43.5202 28.4645 42.7451 28.4702C41.1018 28.4823 39.0187 28.2365 38.1948 28.0337C37.1614 27.7793 34.9309 27.3542 33.1114 27.1154L33.0143 27.1027H32.9163C32.782 27.1027 32.6399 27.1008 32.4912 27.0988H32.491C31.5288 27.086 30.2924 27.0696 29.1209 27.5366C26.1032 28.7395 23.7571 31.2432 23.2004 34.5323C23.1152 35.0352 23.0763 35.6526 23.0763 36.1327C23.0763 38.6177 24.1862 40.1473 25.1807 41.2202C26.4836 42.6253 28.358 43.2549 30.4313 43.4904C31.3492 43.5951 32.0392 43.6701 32.5859 43.7203C34.1798 43.1541 35.613 42.1288 36.3808 40.6082C35.6603 40.6554 35.2028 40.7053 34.8596 40.7424H34.8596L34.8588 40.7428H34.8587C34.6926 40.7608 34.5533 40.7758 34.4238 40.7863C33.9089 40.8283 33.4506 40.8144 30.7701 40.5099C29.0279 40.3119 27.986 39.8331 27.3806 39.1802C26.6964 38.4426 26.1491 37.6648 26.083 36.395L38.8188 37.3744C39.9588 36.7182 41.0842 35.7779 41.9257 34.6044L26.6853 33.4325C27.3756 32.0659 28.6193 30.9661 30.2317 30.3234C30.8112 30.0924 31.3894 30.0955 32.3927 30.1009H32.3934C32.5266 30.1016 32.6674 30.1023 32.8166 30.1026C34.5256 30.3314 36.5847 30.7269 37.4778 30.9467C38.5968 31.2222 40.9365 31.4836 42.7672 31.4702C43.7295 31.4631 44.532 31.3659 45.2722 31.1373C46.02 30.9062 46.6241 30.5654 47.2053 30.1724C47.643 29.8762 48.7432 29.0389 49.4598 27.5172C49.6548 27.3098 49.7932 27.0445 49.845 26.7426C49.8776 26.5502 49.9072 26.3523 49.932 26.149C49.9882 25.9041 50.0336 25.647 50.0658 25.3777C50.0928 25.1491 50.0673 24.9264 49.9983 24.7218C49.9672 23.7915 49.779 22.7721 49.302 21.6661C48.9052 20.7466 48.5115 20.1386 47.8046 19.3612L47.7453 19.296L47.679 19.2383L46.989 18.6383L46.9275 18.5847L46.8603 18.5381L45.7803 17.7881L45.7016 17.7335L45.6168 17.6894C44.0587 16.8792 43.4497 16.5885 41.5496 16.0543C40.5345 15.7254 39.732 15.5777 38.9396 15.4319C38.5766 15.365 38.2155 15.2986 37.8371 15.2153L37.7778 15.2022L37.7175 15.194C37.3892 15.1492 37.0886 15.1055 36.8016 15.0639C35.3822 14.8577 34.2974 14.7002 31.8747 14.7002Z" fill="#F5F6F8"/>
</g>
</g>
<path d="M84.5673 30.7007V35.5986H91.6763V38.8639H81V19.8163H91.6763V23.0816H84.5673V27.4354H90.1475V30.7007H84.5673ZM98.2204 28.4422V35.6803H104.54V38.8639H97.6854L94.7296 37.0408V27.0816L97.6854 25.2585H104.54V28.4422H98.2204ZM111.334 38.8639H107.843V19H111.334V26.2381L113.143 25.1224H116.481L119.437 26.9456V38.8639H115.946V28.3061H111.334V38.8639ZM134.609 37.1769L131.654 39H126.226L123.271 37.1769V26.9456L126.226 25.1224H131.654L134.609 26.9456V37.1769ZM126.761 28.3061V35.8163H131.119V28.3061H126.761ZM148.235 33.2857H151.802V37.1769L148.846 39H141.635L138.679 37.1769V21.5034L141.635 19.6803H148.846L151.802 21.5034V25.3946H148.235V22.9456H142.247V35.7347H148.235V33.2857ZM170.882 38.8639V26.2925H170.831L166.805 38.8639H163.416L159.365 26.1293H159.314V38.8639H155.874V19.8163H160.613L165.098 33.8299H165.149L169.608 19.8163H174.322V38.8639H170.882ZM178.642 29.2041V21.5034L181.598 19.6803H188.044L191 21.5034V25.1224H187.433V22.9456H182.209V27.4898H188.044L191 29.3129V37.1769L188.044 39H181.343L178.387 37.1769V33.5578H181.954V35.7347H187.433V31.0272H181.598L178.642 29.2041Z" fill="url(#paint2_linear_95_654)"/>
<defs>
<filter id="filter0_i_95_654" x="-3" y="0" width="63" height="61" filterUnits="userSpaceOnUse" color-interpolation-filters="sRGB">
<feFlood flood-opacity="0" result="BackgroundImageFix"/>
<feBlend mode="normal" in="SourceGraphic" in2="BackgroundImageFix" result="shape"/>
<feColorMatrix in="SourceAlpha" type="matrix" values="0 0 0 0 0 0 0 0 0 0 0 0 0 0 0 0 0 0 127 0" result="hardAlpha"/>
<feOffset dx="-3" dy="1"/>
<feGaussianBlur stdDeviation="15"/>
<feComposite in2="hardAlpha" operator="arithmetic" k2="-1" k3="1"/>
<feColorMatrix type="matrix" values="0 0 0 0 0 0 0 0 0 0 0 0 0 0 0 0 0 0 0.3 0"/>
<feBlend mode="normal" in2="shape" result="effect1_innerShadow_95_654"/>
</filter>
<filter id="filter1_i_95_654" x="2" y="3" width="55" height="55" filterUnits="userSpaceOnUse" color-interpolation-filters="sRGB">
<feFlood flood-opacity="0" result="BackgroundImageFix"/>
<feBlend mode="normal" in="SourceGraphic" in2="BackgroundImageFix" result="shape"/>
<feColorMatrix in="SourceAlpha" type="matrix" values="0 0 0 0 0 0 0 0 0 0 0 0 0 0 0 0 0 0 127 0" result="hardAlpha"/>
<feOffset dx="-1" dy="1"/>
<feGaussianBlur stdDeviation="1.5"/>
<feComposite in2="hardAlpha" operator="arithmetic" k2="-1" k3="1"/>
<feColorMatrix type="matrix" values="0 0 0 0 0 0 0 0 0 0 0 0 0 0 0 0 0 0 0.3 0"/>
<feBlend mode="normal" in2="shape" result="effect1_innerShadow_95_654"/>
</filter>
<filter id="filter2_d_95_654" x="1.58057" y="10.7002" width="54.4961" height="48.0098" filterUnits="userSpaceOnUse" color-interpolation-filters="sRGB">
<feFlood flood-opacity="0" result="BackgroundImageFix"/>
<feColorMatrix in="SourceAlpha" type="matrix" values="0 0 0 0 0 0 0 0 0 0 0 0 0 0 0 0 0 0 127 0" result="hardAlpha"/>
<feOffset dx="-2" dy="4"/>
<feGaussianBlur stdDeviation="4"/>
<feComposite in2="hardAlpha" operator="out"/>
<feColorMatrix type="matrix" values="0 0 0 0 0 0 0 0 0 0 0 0 0 0 0 0 0 0 0.9 0"/>
<feBlend mode="normal" in2="BackgroundImageFix" result="effect1_dropShadow_95_654"/>
<feBlend mode="normal" in="SourceGraphic" in2="effect1_dropShadow_95_654" result="shape"/>
</filter>
<linearGradient id="paint0_linear_95_654" x1="1.98" y1="17.94" x2="128.04" y2="38.73" gradientUnits="userSpaceOnUse">
<stop stop-color="#385561"/>
<stop offset="1" stop-color="#ABC3C8"/>
</linearGradient>
<linearGradient id="paint1_linear_95_654" x1="67.29" y1="71.13" x2="0.0900011" y2="9.3" gradientUnits="userSpaceOnUse">
<stop stop-color="#75989F"/>
<stop offset="1" stop-color="#335056"/>
</linearGradient>
<linearGradient id="paint2_linear_95_654" x1="81" y1="29" x2="191" y2="29" gradientUnits="userSpaceOnUse">
<stop stop-color="#568792"/>
<stop offset="1" stop-color="#7BA2AB"/>
</linearGradient>
</defs>
</svg>
