<svg width="224" height="50" viewBox="0 14 224 50" fill="none" xmlns="http://www.w3.org/2000/svg">
<path d="M211.314 22.8284L221.213 32.7279C221.994 33.5089 221.994 34.7753 221.213 35.5563L211.314 45.4558" stroke="url(#paint0_linear_126_3)" stroke-width="3" stroke-linecap="round" style="mix-blend-mode:screen"/>
<path d="M12.6152 35.4854H8.25V31.9258H12.6152C13.2207 31.9258 13.7139 31.7891 14.0947 31.5156C14.4854 31.2422 14.7686 30.8662 14.9443 30.3877C15.1201 29.8994 15.208 29.3525 15.208 28.7471C15.208 28.1318 15.1152 27.5605 14.9297 27.0332C14.7539 26.4961 14.4756 26.0615 14.0947 25.7295C13.7236 25.3975 13.2305 25.2314 12.6152 25.2314H9.62695V43H5.34961V21.6719H12.6152C14.0508 21.6719 15.2861 21.9746 16.3213 22.5801C17.3564 23.1855 18.1475 24.0205 18.6943 25.085C19.251 26.1396 19.5293 27.3506 19.5293 28.7178C19.5293 30.0947 19.251 31.291 18.6943 32.3066C18.1475 33.3125 17.3564 34.0938 16.3213 34.6504C15.2861 35.207 14.0508 35.4854 12.6152 35.4854ZM29.0068 39.3525V32.0283C29.0068 31.5498 28.9482 31.1689 28.8311 30.8857C28.7236 30.6025 28.5576 30.3975 28.333 30.2705C28.1182 30.1338 27.8545 30.0654 27.542 30.0654C27.1904 30.0654 26.8975 30.1387 26.6631 30.2852C26.4287 30.4316 26.2529 30.6416 26.1357 30.915C26.0283 31.1885 25.9746 31.5156 25.9746 31.8965H21.8584C21.8584 31.2129 21.9902 30.5684 22.2539 29.9629C22.5176 29.3477 22.9033 28.8105 23.4111 28.3516C23.9287 27.8828 24.5439 27.5166 25.2568 27.2529C25.9697 26.9893 26.7705 26.8574 27.6592 26.8574C28.7139 26.8574 29.6514 27.0381 30.4717 27.3994C31.292 27.751 31.9414 28.3125 32.4199 29.084C32.8984 29.8555 33.1377 30.8564 33.1377 32.0869V39.1475C33.1377 40.0361 33.1816 40.7588 33.2695 41.3154C33.3672 41.8721 33.5088 42.3506 33.6943 42.751V43H29.5635C29.3779 42.5605 29.2363 42.0137 29.1387 41.3594C29.0508 40.6953 29.0068 40.0264 29.0068 39.3525ZM29.5049 33.3174L29.5195 35.7783H28.0107C27.6201 35.7783 27.2783 35.8418 26.9854 35.9688C26.7021 36.0957 26.4629 36.2764 26.2676 36.5107C26.0723 36.7354 25.9258 36.999 25.8281 37.3018C25.7402 37.6045 25.6963 37.9268 25.6963 38.2686C25.6963 38.6494 25.75 38.9717 25.8574 39.2354C25.9648 39.499 26.126 39.6992 26.3408 39.8359C26.5557 39.9727 26.8096 40.041 27.1025 40.041C27.5518 40.041 27.9424 39.9482 28.2744 39.7627C28.6064 39.5771 28.8506 39.3525 29.0068 39.0889C29.1729 38.8252 29.2266 38.5811 29.168 38.3564L30.1055 39.9531C29.9883 40.3145 29.8271 40.6904 29.6221 41.0811C29.4268 41.4717 29.1777 41.833 28.875 42.165C28.5723 42.4971 28.1963 42.7705 27.7471 42.9854C27.3076 43.1904 26.7852 43.293 26.1797 43.293C25.3301 43.293 24.5537 43.0977 23.8506 42.707C23.1475 42.3164 22.5908 41.7695 22.1807 41.0664C21.7803 40.3633 21.5801 39.5283 21.5801 38.5615C21.5801 37.7607 21.707 37.0381 21.9609 36.3936C22.2246 35.7393 22.6152 35.1875 23.1328 34.7383C23.6504 34.2793 24.3047 33.9277 25.0957 33.6836C25.8867 33.4395 26.8145 33.3174 27.8789 33.3174H29.5049ZM25.4912 25.0264L28.3623 20.5H32.9766L28.9336 25.0264H25.4912ZM44.5049 27.1504H48.2256V43C48.2256 44.4453 47.9473 45.627 47.3906 46.5449C46.8438 47.4727 46.0771 48.1514 45.0908 48.5811C44.1143 49.0205 42.9717 49.2402 41.6631 49.2402C41.165 49.2402 40.6035 49.1719 39.9785 49.0352C39.3633 48.8984 38.7676 48.6885 38.1914 48.4053C37.6152 48.1318 37.1416 47.7998 36.7705 47.4092L38.1621 44.5674C38.543 44.9482 39.041 45.2705 39.6562 45.5342C40.2715 45.8076 40.877 45.9443 41.4727 45.9443C42.0488 45.9443 42.5273 45.8516 42.9082 45.666C43.2988 45.4902 43.5918 45.1875 43.7871 44.7578C43.9922 44.3281 44.0947 43.752 44.0947 43.0293V30.8271L44.5049 27.1504ZM35.6572 35.6318V34.5771C35.6572 33.2881 35.7793 32.1602 36.0234 31.1934C36.2676 30.2266 36.6191 29.4209 37.0781 28.7764C37.5371 28.1318 38.0986 27.6533 38.7627 27.3408C39.4365 27.0186 40.1885 26.8574 41.0186 26.8574C41.8877 26.8574 42.6152 27.0479 43.2012 27.4287C43.7871 27.7998 44.2607 28.3223 44.6221 28.9961C44.9932 29.6699 45.2764 30.4658 45.4717 31.3838C45.6768 32.3018 45.833 33.3076 45.9404 34.4014V35.9248C45.833 36.96 45.6572 37.9268 45.4131 38.8252C45.1787 39.7236 44.8662 40.5049 44.4756 41.1689C44.085 41.833 43.6064 42.3555 43.04 42.7363C42.4736 43.1074 41.79 43.293 40.9893 43.293C40.1689 43.293 39.4268 43.127 38.7627 42.7949C38.1084 42.4629 37.5469 41.9746 37.0781 41.3301C36.6191 40.6758 36.2676 39.875 36.0234 38.9277C35.7793 37.9707 35.6572 36.8721 35.6572 35.6318ZM39.7734 34.5771V35.6318C39.7734 36.374 39.8174 37.0137 39.9053 37.5508C40.0029 38.0781 40.1494 38.5127 40.3447 38.8545C40.54 39.1865 40.7891 39.4355 41.0918 39.6016C41.4043 39.7578 41.7705 39.8359 42.1904 39.8359C42.7861 39.8359 43.2598 39.6992 43.6113 39.4258C43.9727 39.1426 44.2363 38.7568 44.4023 38.2686C44.5781 37.7705 44.6758 37.1992 44.6953 36.5547V33.7861C44.6855 33.249 44.6221 32.7656 44.5049 32.3359C44.3975 31.9062 44.2461 31.54 44.0508 31.2373C43.8555 30.9346 43.6016 30.7002 43.2891 30.5342C42.9863 30.3682 42.6299 30.2852 42.2197 30.2852C41.7998 30.2852 41.4385 30.3682 41.1357 30.5342C40.833 30.7002 40.5791 30.959 40.374 31.3105C40.1787 31.6523 40.0273 32.0967 39.9199 32.6436C39.8223 33.1807 39.7734 33.8252 39.7734 34.5771ZM55.5938 27.1504V43H51.4775V27.1504H55.5938ZM51.2871 23.0488C51.2871 22.4141 51.4873 21.8916 51.8877 21.4814C52.2979 21.0615 52.8447 20.8516 53.5283 20.8516C54.2217 20.8516 54.7686 21.0615 55.1689 21.4814C55.5693 21.8916 55.7695 22.4141 55.7695 23.0488C55.7695 23.6738 55.5645 24.1963 55.1543 24.6162C54.7539 25.0264 54.2168 25.2314 53.543 25.2314C52.8496 25.2314 52.2979 25.0264 51.8877 24.6162C51.4873 24.1963 51.2871 23.6738 51.2871 23.0488ZM62.874 30.5342V43H58.7578V27.1504H62.6104L62.874 30.5342ZM62.2588 34.5332L61.1602 34.5625C61.1406 33.3711 61.2529 32.3018 61.4971 31.3545C61.751 30.4072 62.1074 29.6016 62.5664 28.9375C63.0352 28.2637 63.5918 27.751 64.2363 27.3994C64.8906 27.0381 65.6182 26.8574 66.4189 26.8574C67.0342 26.8574 67.5957 26.9648 68.1035 27.1797C68.6211 27.3945 69.0654 27.7363 69.4365 28.2051C69.8076 28.6738 70.0957 29.2988 70.3008 30.0801C70.5059 30.8516 70.6084 31.7988 70.6084 32.9219V43H66.4922V32.8926C66.4922 32.209 66.4238 31.6816 66.2871 31.3105C66.1504 30.9297 65.9453 30.666 65.6719 30.5195C65.3984 30.3633 65.0566 30.2852 64.6465 30.2852C64.2559 30.2852 63.9092 30.3975 63.6064 30.6221C63.3037 30.8369 63.0498 31.1348 62.8447 31.5156C62.6494 31.8965 62.498 32.3457 62.3906 32.8633C62.293 33.3809 62.249 33.9375 62.2588 34.5332ZM80.5986 39.3525V32.0283C80.5986 31.5498 80.54 31.1689 80.4229 30.8857C80.3154 30.6025 80.1494 30.3975 79.9248 30.2705C79.71 30.1338 79.4463 30.0654 79.1338 30.0654C78.7822 30.0654 78.4893 30.1387 78.2549 30.2852C78.0205 30.4316 77.8447 30.6416 77.7275 30.915C77.6201 31.1885 77.5664 31.5156 77.5664 31.8965H73.4502C73.4502 31.2129 73.582 30.5684 73.8457 29.9629C74.1094 29.3477 74.4951 28.8105 75.0029 28.3516C75.5205 27.8828 76.1357 27.5166 76.8486 27.2529C77.5615 26.9893 78.3623 26.8574 79.251 26.8574C80.3057 26.8574 81.2432 27.0381 82.0635 27.3994C82.8838 27.751 83.5332 28.3125 84.0117 29.084C84.4902 29.8555 84.7295 30.8564 84.7295 32.0869V39.1475C84.7295 40.0361 84.7734 40.7588 84.8613 41.3154C84.959 41.8721 85.1006 42.3506 85.2861 42.751V43H81.1553C80.9697 42.5605 80.8281 42.0137 80.7305 41.3594C80.6426 40.6953 80.5986 40.0264 80.5986 39.3525ZM81.0967 33.3174L81.1113 35.7783H79.6025C79.2119 35.7783 78.8701 35.8418 78.5771 35.9688C78.2939 36.0957 78.0547 36.2764 77.8594 36.5107C77.6641 36.7354 77.5176 36.999 77.4199 37.3018C77.332 37.6045 77.2881 37.9268 77.2881 38.2686C77.2881 38.6494 77.3418 38.9717 77.4492 39.2354C77.5566 39.499 77.7178 39.6992 77.9326 39.8359C78.1475 39.9727 78.4014 40.041 78.6943 40.041C79.1436 40.041 79.5342 39.9482 79.8662 39.7627C80.1982 39.5771 80.4424 39.3525 80.5986 39.0889C80.7646 38.8252 80.8184 38.5811 80.7598 38.3564L81.6973 39.9531C81.5801 40.3145 81.4189 40.6904 81.2139 41.0811C81.0186 41.4717 80.7695 41.833 80.4668 42.165C80.1641 42.4971 79.7881 42.7705 79.3389 42.9854C78.8994 43.1904 78.377 43.293 77.7715 43.293C76.9219 43.293 76.1455 43.0977 75.4424 42.707C74.7393 42.3164 74.1826 41.7695 73.7725 41.0664C73.3721 40.3633 73.1719 39.5283 73.1719 38.5615C73.1719 37.7607 73.2988 37.0381 73.5527 36.3936C73.8164 35.7393 74.207 35.1875 74.7246 34.7383C75.2422 34.2793 75.8965 33.9277 76.6875 33.6836C77.4785 33.4395 78.4062 33.3174 79.4707 33.3174H81.0967ZM102.146 35.4854H97.7812V31.9258H102.146C102.752 31.9258 103.245 31.7891 103.626 31.5156C104.017 31.2422 104.3 30.8662 104.476 30.3877C104.651 29.8994 104.739 29.3525 104.739 28.7471C104.739 28.1318 104.646 27.5605 104.461 27.0332C104.285 26.4961 104.007 26.0615 103.626 25.7295C103.255 25.3975 102.762 25.2314 102.146 25.2314H99.1582V43H94.8809V21.6719H102.146C103.582 21.6719 104.817 21.9746 105.853 22.5801C106.888 23.1855 107.679 24.0205 108.226 25.085C108.782 26.1396 109.061 27.3506 109.061 28.7178C109.061 30.0947 108.782 31.291 108.226 32.3066C107.679 33.3125 106.888 34.0938 105.853 34.6504C104.817 35.207 103.582 35.4854 102.146 35.4854ZM115.828 30.6807V43H111.727V27.1504H115.594L115.828 30.6807ZM119.563 27.0332L119.505 31.1201C119.319 31.0811 119.095 31.0518 118.831 31.0322C118.577 31.0127 118.353 31.0029 118.157 31.0029C117.698 31.0029 117.308 31.0762 116.985 31.2227C116.663 31.3594 116.395 31.5693 116.18 31.8525C115.975 32.126 115.818 32.4678 115.711 32.8779C115.604 33.2881 115.54 33.752 115.521 34.2695L114.744 33.9766C114.744 32.9414 114.822 31.9941 114.979 31.1348C115.145 30.2656 115.389 29.5137 115.711 28.8789C116.033 28.2344 116.419 27.7363 116.868 27.3848C117.327 27.0332 117.845 26.8574 118.421 26.8574C118.616 26.8574 118.821 26.877 119.036 26.916C119.261 26.9453 119.437 26.9844 119.563 27.0332ZM125.965 27.1504V43H121.849V27.1504H125.965ZM121.658 23.0488C121.658 22.4141 121.858 21.8916 122.259 21.4814C122.669 21.0615 123.216 20.8516 123.899 20.8516C124.593 20.8516 125.14 21.0615 125.54 21.4814C125.94 21.8916 126.141 22.4141 126.141 23.0488C126.141 23.6738 125.936 24.1963 125.525 24.6162C125.125 25.0264 124.588 25.2314 123.914 25.2314C123.221 25.2314 122.669 25.0264 122.259 24.6162C121.858 24.1963 121.658 23.6738 121.658 23.0488ZM133.245 30.5342V43H129.129V27.1504H132.981L133.245 30.5342ZM132.63 34.5332L131.531 34.5625C131.512 33.3711 131.624 32.3018 131.868 31.3545C132.122 30.4072 132.479 29.6016 132.938 28.9375C133.406 28.2637 133.963 27.751 134.607 27.3994C135.262 27.0381 135.989 26.8574 136.79 26.8574C137.405 26.8574 137.967 26.9648 138.475 27.1797C138.992 27.3945 139.437 27.7363 139.808 28.2051C140.179 28.6738 140.467 29.2988 140.672 30.0801C140.877 30.8516 140.979 31.7988 140.979 32.9219V43H136.863V32.8926C136.863 32.209 136.795 31.6816 136.658 31.3105C136.521 30.9297 136.316 30.666 136.043 30.5195C135.77 30.3633 135.428 30.2852 135.018 30.2852C134.627 30.2852 134.28 30.3975 133.978 30.6221C133.675 30.8369 133.421 31.1348 133.216 31.5156C133.021 31.8965 132.869 32.3457 132.762 32.8633C132.664 33.3809 132.62 33.9375 132.63 34.5332ZM149.71 39.8799C150.091 39.8799 150.418 39.8018 150.691 39.6455C150.975 39.4893 151.189 39.2354 151.336 38.8838C151.482 38.5322 151.561 38.0781 151.57 37.5215H155.423C155.423 38.7129 155.169 39.7432 154.661 40.6123C154.163 41.4717 153.489 42.1357 152.64 42.6045C151.8 43.0635 150.848 43.293 149.783 43.293C148.719 43.293 147.791 43.1221 147 42.7803C146.209 42.4385 145.555 41.9404 145.037 41.2861C144.529 40.6318 144.144 39.8359 143.88 38.8984C143.626 37.9512 143.499 36.8672 143.499 35.6465V34.4893C143.499 33.2881 143.626 32.2139 143.88 31.2666C144.144 30.3193 144.529 29.5186 145.037 28.8643C145.555 28.21 146.204 27.7119 146.985 27.3701C147.776 27.0283 148.704 26.8574 149.769 26.8574C150.911 26.8574 151.902 27.0967 152.742 27.5752C153.582 28.0439 154.236 28.7373 154.705 29.6553C155.184 30.5732 155.423 31.7061 155.423 33.0537H151.57C151.561 32.4482 151.487 31.9453 151.351 31.5449C151.224 31.1348 151.023 30.8223 150.75 30.6074C150.486 30.3828 150.135 30.2705 149.695 30.2705C149.236 30.2705 148.865 30.3682 148.582 30.5635C148.309 30.749 148.099 31.0225 147.952 31.3838C147.815 31.7354 147.723 32.1748 147.674 32.7021C147.625 33.2295 147.601 33.8252 147.601 34.4893V35.6465C147.601 36.3594 147.62 36.9795 147.659 37.5068C147.708 38.0244 147.801 38.4639 147.938 38.8252C148.084 39.1768 148.294 39.4404 148.567 39.6162C148.851 39.792 149.231 39.8799 149.71 39.8799ZM162.088 27.1504V43H157.972V27.1504H162.088ZM157.781 23.0488C157.781 22.4141 157.981 21.8916 158.382 21.4814C158.792 21.0615 159.339 20.8516 160.022 20.8516C160.716 20.8516 161.263 21.0615 161.663 21.4814C162.063 21.8916 162.264 22.4141 162.264 23.0488C162.264 23.6738 162.059 24.1963 161.648 24.6162C161.248 25.0264 160.711 25.2314 160.037 25.2314C159.344 25.2314 158.792 25.0264 158.382 24.6162C157.981 24.1963 157.781 23.6738 157.781 23.0488ZM169.441 30.1973V49.0938H165.354V27.1504H169.134L169.441 30.1973ZM177.674 34.5332V35.5879C177.674 36.8281 177.566 37.9268 177.352 38.8838C177.137 39.8311 176.814 40.6367 176.385 41.3008C175.965 41.9551 175.438 42.4531 174.803 42.7949C174.168 43.127 173.426 43.293 172.576 43.293C171.785 43.293 171.102 43.1074 170.525 42.7363C169.959 42.3555 169.48 41.833 169.09 41.1689C168.699 40.5049 168.387 39.7285 168.152 38.8398C167.918 37.9512 167.737 36.999 167.61 35.9834V34.3428C167.728 33.2588 167.898 32.2627 168.123 31.3545C168.348 30.4365 168.655 29.6406 169.046 28.9668C169.446 28.293 169.93 27.7754 170.496 27.4141C171.072 27.043 171.756 26.8574 172.547 26.8574C173.406 26.8574 174.153 27.0137 174.788 27.3262C175.433 27.6387 175.965 28.1123 176.385 28.7471C176.814 29.3721 177.137 30.168 177.352 31.1348C177.566 32.1016 177.674 33.2344 177.674 34.5332ZM173.572 35.5879V34.5332C173.572 33.7715 173.528 33.1221 173.44 32.585C173.362 32.0479 173.235 31.6084 173.06 31.2666C172.884 30.9248 172.654 30.6758 172.371 30.5195C172.088 30.3633 171.741 30.2852 171.331 30.2852C170.931 30.2852 170.579 30.3633 170.276 30.5195C169.983 30.6758 169.744 30.9053 169.559 31.208C169.373 31.501 169.231 31.8623 169.134 32.292C169.036 32.7119 168.982 33.1904 168.973 33.7275V36.5986C168.992 37.2334 169.075 37.7949 169.222 38.2832C169.378 38.7715 169.627 39.1621 169.969 39.4551C170.311 39.7383 170.774 39.8799 171.36 39.8799C171.78 39.8799 172.127 39.792 172.4 39.6162C172.684 39.4404 172.913 39.1768 173.089 38.8252C173.265 38.4736 173.387 38.0293 173.455 37.4922C173.533 36.9551 173.572 36.3203 173.572 35.5879ZM187.181 39.3525V32.0283C187.181 31.5498 187.122 31.1689 187.005 30.8857C186.897 30.6025 186.731 30.3975 186.507 30.2705C186.292 30.1338 186.028 30.0654 185.716 30.0654C185.364 30.0654 185.071 30.1387 184.837 30.2852C184.603 30.4316 184.427 30.6416 184.31 30.915C184.202 31.1885 184.148 31.5156 184.148 31.8965H180.032C180.032 31.2129 180.164 30.5684 180.428 29.9629C180.691 29.3477 181.077 28.8105 181.585 28.3516C182.103 27.8828 182.718 27.5166 183.431 27.2529C184.144 26.9893 184.944 26.8574 185.833 26.8574C186.888 26.8574 187.825 27.0381 188.646 27.3994C189.466 27.751 190.115 28.3125 190.594 29.084C191.072 29.8555 191.312 30.8564 191.312 32.0869V39.1475C191.312 40.0361 191.355 40.7588 191.443 41.3154C191.541 41.8721 191.683 42.3506 191.868 42.751V43H187.737C187.552 42.5605 187.41 42.0137 187.312 41.3594C187.225 40.6953 187.181 40.0264 187.181 39.3525ZM187.679 33.3174L187.693 35.7783H186.185C185.794 35.7783 185.452 35.8418 185.159 35.9688C184.876 36.0957 184.637 36.2764 184.441 36.5107C184.246 36.7354 184.1 36.999 184.002 37.3018C183.914 37.6045 183.87 37.9268 183.87 38.2686C183.87 38.6494 183.924 38.9717 184.031 39.2354C184.139 39.499 184.3 39.6992 184.515 39.8359C184.729 39.9727 184.983 40.041 185.276 40.041C185.726 40.041 186.116 39.9482 186.448 39.7627C186.78 39.5771 187.024 39.3525 187.181 39.0889C187.347 38.8252 187.4 38.5811 187.342 38.3564L188.279 39.9531C188.162 40.3145 188.001 40.6904 187.796 41.0811C187.601 41.4717 187.352 41.833 187.049 42.165C186.746 42.4971 186.37 42.7705 185.921 42.9854C185.481 43.1904 184.959 43.293 184.354 43.293C183.504 43.293 182.728 43.0977 182.024 42.707C181.321 42.3164 180.765 41.7695 180.354 41.0664C179.954 40.3633 179.754 39.5283 179.754 38.5615C179.754 37.7607 179.881 37.0381 180.135 36.3936C180.398 35.7393 180.789 35.1875 181.307 34.7383C181.824 34.2793 182.479 33.9277 183.27 33.6836C184.061 33.4395 184.988 33.3174 186.053 33.3174H187.679ZM198.65 20.5V43H194.534V20.5H198.65Z" fill="url(#paint1_linear_126_3)" style="mix-blend-mode:screen"/>
<path d="M3.62109 45.9297H200.379V47.3945H3.62109V45.9297Z" fill="url(#paint2_linear_126_3)" style="mix-blend-mode:screen"/>
<defs>
<linearGradient id="paint0_linear_126_3" x1="205.657" y1="39.7989" x2="216.971" y2="28.4852" gradientUnits="userSpaceOnUse">
<stop stop-color="#49868B"/>
<stop offset="1" stop-color="#8CB5B9"/>
</linearGradient>
<linearGradient id="paint1_linear_126_3" x1="0" y1="32.5" x2="204" y2="32.5" gradientUnits="userSpaceOnUse">
<stop stop-color="#49868B"/>
<stop offset="1" stop-color="#8CB5B9"/>
</linearGradient>
<linearGradient id="paint2_linear_126_3" x1="0" y1="32.5" x2="204" y2="32.5" gradientUnits="userSpaceOnUse">
<stop stop-color="#49868B"/>
<stop offset="1" stop-color="#8CB5B9"/>
</linearGradient>
</defs>
</svg>
