<svg width="76" height="24" viewBox="0 0 76 24" fill="none" xmlns="http://www.w3.org/2000/svg">
<path d="M23.1 12.0877C23.1 18.1635 18.1366 23.1001 12 23.1001C5.86341 23.1001 0.9 18.1635 0.9 12.0877C0.9 6.01193 5.86341 1.07529 12 1.07529C18.1366 1.07529 23.1 6.01193 23.1 12.0877Z" fill="white" stroke="white" stroke-width="1.8"/>
<path d="M12.33 6.85693C13.35 6.85693 14.165 7.17693 14.775 7.81693C15.395 8.45693 15.705 9.33122 15.705 10.4398C15.705 11.5941 15.385 12.4626 14.745 13.0455C14.105 13.6284 13.255 13.9198 12.195 13.9198L12.135 15.2741H10.65L10.575 12.5826H11.07C12.04 12.5826 12.78 12.4341 13.29 12.1369C13.81 11.8398 14.07 11.2741 14.07 10.4398C14.07 9.83408 13.915 9.35979 13.605 9.01693C13.305 8.67408 12.885 8.50265 12.345 8.50265C11.805 8.50265 11.38 8.66836 11.07 8.99979C10.76 9.33122 10.605 9.79408 10.605 10.3884H9C9 9.70265 9.135 9.09122 9.405 8.55408C9.675 8.01693 10.06 7.59979 10.56 7.30265C11.07 7.00551 11.66 6.85693 12.33 6.85693ZM11.37 19.0626C11.06 19.0626 10.8 18.9426 10.59 18.7026C10.38 18.4626 10.275 18.1655 10.275 17.8112C10.275 17.4569 10.38 17.1598 10.59 16.9198C10.8 16.6798 11.06 16.5598 11.37 16.5598C11.67 16.5598 11.925 16.6798 12.135 16.9198C12.345 17.1598 12.45 17.4569 12.45 17.8112C12.45 18.1655 12.345 18.4626 12.135 18.7026C11.925 18.9426 11.67 19.0626 11.37 19.0626Z" fill="#3D5571"/>
<path d="M31.9787 17H30.348L34.0121 6.81818H35.7869L39.451 17H37.8203L34.9418 8.66761H34.8622L31.9787 17ZM32.2521 13.0128H37.5419V14.3054H32.2521V13.0128ZM40.802 9.36364H42.2885V17.4972C42.2885 18.0076 42.1957 18.4384 42.0101 18.7898C41.8278 19.1411 41.556 19.4079 41.1948 19.5902C40.8368 19.7725 40.3944 19.8636 39.8674 19.8636C39.8143 19.8636 39.7646 19.8636 39.7182 19.8636C39.6685 19.8636 39.6171 19.862 39.5641 19.8587V18.581C39.6105 18.581 39.6519 18.581 39.6884 18.581C39.7215 18.581 39.7596 18.581 39.8027 18.581C40.1541 18.581 40.4076 18.4865 40.5634 18.2976C40.7225 18.112 40.802 17.8419 40.802 17.4872V9.36364ZM41.5378 8.18537C41.2793 8.18537 41.0572 8.09919 40.8716 7.92685C40.6893 7.75118 40.5982 7.54238 40.5982 7.30043C40.5982 7.05516 40.6893 6.84635 40.8716 6.67401C41.0572 6.49834 41.2793 6.41051 41.5378 6.41051C41.7963 6.41051 42.0167 6.49834 42.199 6.67401C42.3846 6.84635 42.4775 7.05516 42.4775 7.30043C42.4775 7.54238 42.3846 7.75118 42.199 7.92685C42.0167 8.09919 41.7963 8.18537 41.5378 8.18537ZM49.1257 13.8331V9.36364H50.6172V17H49.1555V15.6776H49.076C48.9003 16.0852 48.6186 16.425 48.2308 16.6967C47.8464 16.9652 47.3674 17.0994 46.794 17.0994C46.3035 17.0994 45.8693 16.9917 45.4915 16.7763C45.117 16.5575 44.822 16.2344 44.6065 15.8068C44.3944 15.3793 44.2884 14.8506 44.2884 14.2209V9.36364H45.7749V14.0419C45.7749 14.5623 45.919 14.9766 46.2074 15.2848C46.4957 15.593 46.8703 15.7472 47.331 15.7472C47.6094 15.7472 47.8861 15.6776 48.1612 15.5384C48.4396 15.3991 48.67 15.1887 48.8523 14.907C49.0379 14.6252 49.129 14.2673 49.1257 13.8331ZM55.4732 17.1491C54.8567 17.1491 54.3065 16.9917 53.8226 16.6768C53.342 16.3587 52.9642 15.9062 52.6891 15.3196C52.4173 14.7296 52.2814 14.022 52.2814 13.1967C52.2814 12.3714 52.419 11.6655 52.6941 11.0788C52.9725 10.4922 53.3536 10.0431 53.8375 9.73153C54.3214 9.41998 54.87 9.2642 55.4831 9.2642C55.9571 9.2642 56.3382 9.34375 56.6266 9.50284C56.9183 9.65862 57.1436 9.84091 57.3027 10.0497C57.4651 10.2585 57.5911 10.4425 57.6806 10.6016H57.7701V6.81818H59.2566V17H57.8049V15.8118H57.6806C57.5911 15.9742 57.4618 16.1598 57.2928 16.3686C57.1271 16.5774 56.8984 16.7597 56.6067 16.9155C56.315 17.0713 55.9372 17.1491 55.4732 17.1491ZM55.8013 15.8814C56.2289 15.8814 56.5901 15.7687 56.8851 15.5433C57.1834 15.3146 57.4088 14.9981 57.5613 14.5938C57.717 14.1894 57.7949 13.7187 57.7949 13.1818C57.7949 12.6515 57.7187 12.1875 57.5662 11.7898C57.4138 11.392 57.19 11.0821 56.8951 10.8601C56.6001 10.638 56.2355 10.527 55.8013 10.527C55.3539 10.527 54.981 10.643 54.6827 10.875C54.3844 11.107 54.159 11.4235 54.0066 11.8246C53.8574 12.2256 53.7828 12.678 53.7828 13.1818C53.7828 13.6922 53.8591 14.1513 54.0115 14.5589C54.164 14.9666 54.3894 15.2898 54.6877 15.5284C54.9893 15.7637 55.3605 15.8814 55.8013 15.8814ZM63.6005 17.169C63.1166 17.169 62.6791 17.0795 62.288 16.9006C61.8969 16.7183 61.587 16.4548 61.3583 16.1101C61.1329 15.7654 61.0202 15.3428 61.0202 14.8423C61.0202 14.4115 61.1031 14.0568 61.2688 13.7784C61.4345 13.5 61.6583 13.2796 61.94 13.1172C62.2217 12.9548 62.5366 12.8321 62.8846 12.7493C63.2326 12.6664 63.5872 12.6035 63.9485 12.5604C64.4059 12.5073 64.7771 12.4643 65.0621 12.4311C65.3472 12.3946 65.5543 12.3366 65.6836 12.2571C65.8129 12.1776 65.8775 12.0483 65.8775 11.8693V11.8345C65.8775 11.4003 65.7549 11.0639 65.5096 10.8253C65.2676 10.5866 64.9064 10.4673 64.4258 10.4673C63.9253 10.4673 63.5309 10.5784 63.2425 10.8004C62.9575 11.0192 62.7603 11.2628 62.6509 11.5312L61.2539 11.2131C61.4196 10.7491 61.6616 10.3745 61.9798 10.0895C62.3013 9.80114 62.6708 9.59233 63.0884 9.46307C63.506 9.33049 63.9452 9.2642 64.4059 9.2642C64.7108 9.2642 65.034 9.30066 65.3754 9.37358C65.7201 9.44318 66.0415 9.57244 66.3398 9.76136C66.6415 9.95028 66.8884 10.2204 67.0806 10.5717C67.2728 10.9197 67.369 11.3722 67.369 11.929V17H65.9173V15.956H65.8576C65.7615 16.1482 65.6173 16.3371 65.4251 16.5227C65.2328 16.7083 64.9859 16.8625 64.6843 16.9851C64.3827 17.1077 64.0214 17.169 63.6005 17.169ZM63.9237 15.9759C64.3346 15.9759 64.686 15.8946 64.9776 15.7322C65.2726 15.5698 65.4963 15.3577 65.6488 15.0959C65.8046 14.8307 65.8825 14.5473 65.8825 14.2457V13.2614C65.8294 13.3144 65.7267 13.3641 65.5742 13.4105C65.4251 13.4536 65.2544 13.4917 65.0621 13.5249C64.8699 13.5547 64.6826 13.5829 64.5004 13.6094C64.3181 13.6326 64.1656 13.6525 64.043 13.669C63.7546 13.7055 63.4911 13.7668 63.2525 13.853C63.0172 13.9392 62.8282 14.0634 62.6857 14.2259C62.5465 14.3849 62.4769 14.5971 62.4769 14.8622C62.4769 15.2301 62.6128 15.5085 62.8846 15.6974C63.1564 15.883 63.5027 15.9759 63.9237 15.9759Z" fill="white"/>
</svg>
