<svg width="20" height="10" viewBox="0 0 303 150" fill="none" xmlns="http://www.w3.org/2000/svg">
<path d="M279.5 76L284.492 81.5976L290.769 76L284.492 70.4024L279.5 76ZM279.5 76C284.492 81.5976 284.49 81.5989 284.488 81.6004L284.484 81.6046L284.47 81.6172L284.423 81.6588C284.383 81.6938 284.327 81.7433 284.255 81.8068C284.111 81.9338 283.901 82.1169 283.63 82.3524C283.086 82.8233 282.293 83.5039 281.269 84.3641C279.221 86.0842 276.247 88.525 272.499 91.4464C265.011 97.2832 254.395 105.069 241.875 112.866C217.139 128.271 183.75 144.5 152 144.5C120.268 144.5 86.5127 128.285 61.4183 112.893C48.7154 105.102 37.9155 97.3211 30.2897 91.4885C26.4729 88.5693 23.4414 86.1305 21.3535 84.4123C20.3093 83.553 19.5003 82.8734 18.9465 82.4033C18.6695 82.1682 18.4563 81.9855 18.3092 81.8589C18.2357 81.7956 18.1787 81.7463 18.1385 81.7115L18.0909 81.6702L18.0767 81.6579L18.072 81.6537C18.0703 81.6523 18.0689 81.651 23 76M279.5 76C284.492 70.4024 284.49 70.4011 284.488 70.3996L284.484 70.3954L284.47 70.3828L284.423 70.3412C284.383 70.3062 284.327 70.2567 284.255 70.1932C284.111 70.0662 283.901 69.8831 283.63 69.6476C283.086 69.1767 282.293 68.4961 281.269 67.6359C279.221 65.9158 276.247 63.475 272.499 60.5536C265.011 54.7168 254.395 46.9306 241.875 39.1336C217.139 23.7291 183.75 7.5 152 7.5C120.268 7.5 86.5127 23.715 61.4183 39.1068C48.7154 46.8981 37.9155 54.6789 30.2897 60.5115C26.4729 63.4307 23.4414 65.8695 21.3535 67.5877C20.3093 68.447 19.5003 69.1266 18.9465 69.5967C18.6695 69.8318 18.4563 70.0145 18.3092 70.1411C18.2357 70.2044 18.1787 70.2537 18.1385 70.2885L18.0909 70.3298L18.0767 70.3421L18.072 70.3463C18.0703 70.3477 18.0689 70.349 23 76M23 76L18.0689 70.349L11.5929 76L18.0689 81.651L23 76Z" stroke="#5a7a9e" stroke-width="15"/>
<path fill-rule="evenodd" clip-rule="evenodd" d="M74 68C75.2027 77.707 109.65 111 151.968 111C194.411 111 228.937 79.4506 229.945 68H213.418C213.135 68.3603 212.816 68.7481 212.461 69.1621C209.519 72.5854 204.866 76.8125 198.747 80.9309C186.447 89.2092 169.816 96 151.968 96C134.345 96 117.775 88.8735 105.338 80.2831C99.1723 76.024 94.4151 71.6699 91.374 68.2027C91.3141 68.1344 91.2552 68.0668 91.1973 68H74ZM88.3242 70.9773C88.3184 70.9791 88.3479 70.9049 88.4305 70.7494C88.3714 70.8977 88.3301 70.9755 88.3242 70.9773ZM215.3 69.8319C215.341 69.9208 215.356 69.9639 215.353 69.9631C215.351 69.9624 215.33 69.918 215.3 69.8319Z" fill="#5a7a9e"/>
</svg>
