<svg width="100%" height="100%" viewBox="0 0 61 15" fill="EDEDED" xmlns="http://www.w3.org/2000/svg">
<path d="M0.955566 14.2591V0.45459H11.0087V2.86095H4.10991V6.1503H10.4915V8.55666H4.10991V11.8528H11.0378V14.2591H0.955566ZM16.5616 8.27356V14.2591H13.4582V3.90572H16.4159V5.73239H16.547C16.7947 5.13024 17.2099 4.65392 17.7927 4.30341C18.3755 3.94841 19.0821 3.77091 19.9126 3.77091C20.6897 3.77091 21.3672 3.92819 21.9451 4.24275C22.523 4.5573 22.9723 5.00667 23.2928 5.59084C23.6133 6.17053 23.7736 6.86255 23.7736 7.66691V14.2591H20.6702V8.17919C20.6751 7.54559 20.5003 7.05128 20.1457 6.69628C19.7912 6.33679 19.3031 6.15705 18.6815 6.15705C18.2638 6.15705 17.8947 6.24018 17.5742 6.40644C17.2585 6.57271 17.0108 6.81537 16.8311 7.13442C16.6563 7.44897 16.5664 7.82869 16.5616 8.27356ZM32.1712 3.90572V6.06268H25.4327V3.90572H32.1712ZM26.9625 1.42522H30.0659V11.0776C30.0659 11.3427 30.1096 11.5494 30.197 11.6977C30.2844 11.8415 30.4059 11.9426 30.5613 12.0011C30.7215 12.0595 30.9061 12.0887 31.1149 12.0887C31.2606 12.0887 31.4063 12.0774 31.552 12.055C31.6977 12.028 31.8094 12.0078 31.8871 11.9943L32.3752 14.131C32.2198 14.176 32.0012 14.2277 31.7196 14.2861C31.4379 14.349 31.0955 14.3872 30.6924 14.4007C29.9445 14.4276 29.2888 14.3355 28.7255 14.1243C28.167 13.9131 27.7323 13.5851 27.4215 13.1402C27.1107 12.6953 26.9577 12.1336 26.9625 11.4551V1.42522ZM34.1928 14.2591V3.90572H37.2014V5.71217H37.318C37.522 5.06958 37.8644 4.58426 38.3452 4.25623C38.826 3.9237 39.3796 3.75743 40.0061 3.75743C40.1615 3.75743 40.3291 3.76642 40.5088 3.78439C40.6885 3.80237 40.8463 3.82708 40.9823 3.85854V6.40644C40.8366 6.366 40.635 6.33005 40.3776 6.29859C40.1202 6.26714 39.8847 6.25141 39.671 6.25141C39.2145 6.25141 38.8065 6.34353 38.4471 6.52777C38.0926 6.70752 37.8109 6.95916 37.6021 7.28271C37.3981 7.60625 37.2961 7.97922 37.2961 8.40163V14.2591H34.1928ZM45.457 14.4546C44.7431 14.4546 44.1069 14.34 43.5484 14.1108C42.9899 13.8772 42.5479 13.5334 42.2225 13.0795C41.902 12.6212 41.7417 12.0505 41.7417 11.3674C41.7417 10.7923 41.8559 10.3092 42.0841 9.91824C42.3124 9.52729 42.6232 9.21273 43.0166 8.97457C43.41 8.73641 43.8568 8.55666 44.357 8.43533C44.8621 8.314 45.3914 8.22862 45.9451 8.17919C46.5959 8.11628 47.1204 8.05786 47.5186 8.00394C47.9169 7.94552 48.2058 7.86014 48.3855 7.7478C48.5652 7.63546 48.6551 7.46919 48.6551 7.249V7.20856C48.6551 6.78166 48.5094 6.45138 48.218 6.21771C47.9314 5.98404 47.5235 5.8672 46.9941 5.8672C46.4356 5.8672 45.9912 5.98179 45.661 6.21097C45.3307 6.43565 45.1122 6.71875 45.0053 7.06027L42.1351 6.84458C42.2808 6.21546 42.5673 5.67173 42.9947 5.21338C43.4221 4.75053 43.9733 4.39553 44.6484 4.14838C45.3283 3.89673 46.1151 3.77091 47.0087 3.77091C47.6303 3.77091 48.2253 3.83832 48.7935 3.97313C49.3666 4.10794 49.8741 4.31689 50.316 4.59999C50.7628 4.88309 51.1149 5.24708 51.3723 5.69195C51.6297 6.13233 51.7584 6.66033 51.7584 7.27597V14.2591H48.8153V12.8234H48.7279C48.5482 13.1469 48.3078 13.4323 48.0067 13.6794C47.7056 13.9221 47.3438 14.1131 46.9213 14.2524C46.4987 14.3872 46.0107 14.4546 45.457 14.4546ZM46.3458 12.4729C46.8023 12.4729 47.2054 12.3898 47.5551 12.2235C47.9047 12.0527 48.1791 11.8236 48.3782 11.536C48.5774 11.2484 48.6769 10.9226 48.6769 10.5586V9.45989C48.5798 9.5183 48.4462 9.57223 48.2763 9.62166C48.1111 9.66659 47.9242 9.70928 47.7153 9.74973C47.5065 9.78568 47.2976 9.81938 47.0888 9.85083C46.88 9.8778 46.6906 9.90251 46.5206 9.92498C46.1563 9.97441 45.8382 10.053 45.5663 10.1609C45.2943 10.2687 45.083 10.4148 44.9325 10.599C44.7819 10.7788 44.7067 11.0035 44.7067 11.2731C44.7067 11.664 44.8596 11.9629 45.1656 12.1696C45.4764 12.3718 45.8698 12.4729 46.3458 12.4729ZM54.1661 14.2591V3.90572H57.1747V5.71217H57.2913C57.4952 5.06958 57.8376 4.58426 58.3184 4.25623C58.7992 3.9237 59.3529 3.75743 59.9794 3.75743C60.1348 3.75743 60.3023 3.76642 60.482 3.78439C60.6617 3.80237 60.8196 3.82708 60.9556 3.85854V6.40644C60.8099 6.366 60.6083 6.33005 60.3509 6.29859C60.0935 6.26714 59.858 6.25141 59.6443 6.25141C59.1878 6.25141 58.7798 6.34353 58.4204 6.52777C58.0659 6.70752 57.7842 6.95916 57.5754 7.28271C57.3714 7.60625 57.2694 7.97922 57.2694 8.40163V14.2591H54.1661Z" fill="white"/>
</svg>
