<svg width="10" height="10" viewBox="0 0 1000 1000" fill="none" xmlns="http://www.w3.org/2000/svg">
<g filter="url(#filter0_i_33_2)">
<rect width="1000" height="1000" rx="208" fill="url(#paint0_linear_33_2)"/>
<g filter="url(#filter1_di_33_2)">
<rect x="50" y="50" width="900" height="900" rx="172" fill="url(#paint1_linear_33_2)"/>
</g>
<g filter="url(#filter2_d_33_2)">
<path fill-rule="evenodd" clip-rule="evenodd" d="M527.234 171H525.794L524.358 171.103L468.858 175.103L466.488 175.274L464.154 175.725L407.154 186.725L404.988 187.143L402.881 187.797C365.452 199.409 348.758 208.408 334.293 216.205C329.347 218.87 324.662 221.396 319.497 223.837L317.608 224.73L315.822 225.816C284.698 244.727 253.311 268.824 230.415 302.519C226.921 307.661 223.742 312.689 220.824 317.592C217.472 320.916 214.655 324.895 212.585 329.448C208.816 337.741 205.247 346.031 201.918 354.277C200.244 357.952 198.66 361.512 197.131 364.951L197.13 364.953C194.794 370.205 192.584 375.174 190.369 379.838C187.561 385.749 186.33 392.003 186.507 398.124C180.15 419.752 176.097 440.491 175.143 459.495C174.462 473.065 172.919 505.005 175.215 524.934C177.347 566.32 184.893 601.874 199.939 634.632C215.137 667.723 236.952 695.699 264.45 722.925C280.148 738.468 305.475 738.342 321.018 722.643C336.561 706.945 336.435 681.618 320.736 666.075C297.734 643.301 282.643 623.027 272.637 601.243C262.662 579.524 256.708 554.043 255.047 519.575L254.966 517.903L254.746 516.245C253.307 505.38 254.201 480.282 255.043 463.505C256.001 444.421 262.619 418.152 275.11 386.706C281.054 373.537 286.641 362.115 296.585 347.481C310.125 327.555 330.173 310.9 355.672 295.219C364.155 291.152 370.125 287.919 375.449 285.036L375.449 285.036C387.674 278.415 396.493 273.639 424.51 264.851L476.98 254.726L528.658 251.001C563.196 251.055 577.269 253.095 599.681 256.344L599.682 256.344C604.129 256.989 608.904 257.681 614.233 258.414C624.545 260.657 631.825 261.959 637.973 263.058L637.974 263.059C648.419 264.927 655.598 266.211 668.827 270.527L669.623 270.787L670.43 271.013C696.251 278.257 702.628 281.208 724.02 292.314L738.13 302.113L746.124 309.064C752.167 315.894 754.62 319.994 758.005 327.843C763.864 341.426 765.058 353.189 764.061 365.099C759.505 380.398 749.285 388.028 746.322 390.032C739.713 394.503 735.553 396.545 731.34 397.846C726.922 399.211 720.282 400.413 708.299 400.501C681.845 400.695 648.411 396.676 636.152 393.659C618.312 389.268 580.584 382.088 549.797 378.048L547.206 377.708H544.593C542.649 377.708 540.492 377.674 538.154 377.637L538.146 377.637L538.136 377.637L538.131 377.636C522.364 377.387 498.36 377.007 475.782 386.007C421.415 407.678 378.157 453.267 367.871 514.032C366.28 523.434 365.593 534.591 365.593 543.208C365.593 589.915 386.771 618.894 404.668 638.197C426.325 661.553 455.515 673.149 486.277 678.56C535.034 678.967 593.18 654.858 608.384 602.405C591.753 603.34 582.055 604.397 575.329 605.13C572.67 605.42 570.475 605.659 568.5 605.82C561.668 606.377 555.597 606.379 510.516 601.256C483.137 598.145 469.934 590.924 463.332 583.803C457.414 577.421 453.254 571.95 450.395 566.058C450.084 565.417 449.781 564.755 449.487 564.069L614.517 576.759C645.994 566.451 683.637 540.499 703.76 503.386L468.004 485.257C477.698 474.908 490.317 466.334 505.404 460.32C512.187 457.617 518.619 457.637 535.822 457.69C537.72 457.696 539.748 457.703 541.923 457.706C569.753 461.477 602.918 467.867 617.034 471.341C637.162 476.295 677.438 480.73 708.887 480.499C725.856 480.374 740.787 478.658 754.951 474.283C769.321 469.844 780.755 463.324 791.147 456.295C799.366 450.735 819.432 435.445 832.966 407.944C837.266 402.736 840.304 396.367 841.523 389.232C842.064 386.06 842.559 382.789 842.978 379.422C843.955 375.061 844.744 370.499 845.312 365.733C845.939 360.475 845.515 355.333 844.206 350.518C843.441 333.969 839.928 315.782 831.463 296.157C824.169 279.248 816.679 267.725 803.832 253.593L802.252 251.856L800.481 250.316L788.981 240.316L787.338 238.887L785.549 237.645L767.549 225.145L765.453 223.689L763.188 222.511C736.636 208.704 725.506 203.41 692.821 194.207C675.05 188.473 660.056 185.705 646.506 183.204L646.506 183.204L646.504 183.204L646.504 183.203C640.719 182.136 635.198 181.117 629.836 179.936L628.249 179.586L626.638 179.367C621.279 178.636 616.329 177.917 611.572 177.226L611.571 177.225C587.723 173.761 568.723 171 527.234 171Z" fill="#F5F6F8"/>
</g>
<g filter="url(#filter3_d_33_2)">
<path d="M275.8 877.96V892H239.92L226 883.96V839.44L239.92 831.4H261.88L275.8 839.44V868.12H242.44V877.96H275.8ZM242.44 845.44V855.76H259.36V845.44H242.44ZM310.292 846.04V877.96H340.052V892H307.772L293.852 883.96V840.04L307.772 832H340.052V846.04H310.292ZM372.049 892H355.609V804.4H372.049V836.32L380.569 831.4H396.289L410.209 839.44V892H393.769V845.44H372.049V892ZM481.666 884.56L467.746 892.6H442.186L428.266 884.56V839.44L442.186 831.4H467.746L481.666 839.44V884.56ZM444.706 845.44V878.56H465.226V845.44H444.706ZM545.833 867.4H562.633V884.56L548.713 892.6H514.753L500.833 884.56V815.44L514.753 807.4H548.713L562.633 815.44V832.6H545.833V821.8H517.633V878.2H545.833V867.4ZM652.489 892V836.56H652.249L633.289 892H617.329L598.249 835.84H598.009V892H581.809V808H604.129L625.249 869.8H625.489L646.489 808H668.689V892H652.489ZM689.036 849.4V815.44L702.956 807.4H733.316L747.236 815.44V831.4H730.436V821.8H705.836V841.84H733.316L747.236 849.88V884.56L733.316 892.6H701.756L687.836 884.56V868.6H704.636V878.2H730.436V857.44H702.956L689.036 849.4Z" fill="#F5F6F8" fill-opacity="0.85" shape-rendering="crispEdges"/>
</g>
</g>
<defs>
<filter id="filter0_i_33_2" x="-30" y="0" width="1030" height="1010" filterUnits="userSpaceOnUse" color-interpolation-filters="sRGB">
<feFlood flood-opacity="0" result="BackgroundImageFix"/>
<feBlend mode="normal" in="SourceGraphic" in2="BackgroundImageFix" result="shape"/>
<feColorMatrix in="SourceAlpha" type="matrix" values="0 0 0 0 0 0 0 0 0 0 0 0 0 0 0 0 0 0 127 0" result="hardAlpha"/>
<feOffset dx="-30" dy="10"/>
<feGaussianBlur stdDeviation="15"/>
<feComposite in2="hardAlpha" operator="arithmetic" k2="-1" k3="1"/>
<feColorMatrix type="matrix" values="0 0 0 0 0 0 0 0 0 0 0 0 0 0 0 0 0 0 0.4 0"/>
<feBlend mode="normal" in2="shape" result="effect1_innerShadow_33_2"/>
</filter>
<filter id="filter1_di_33_2" x="20" y="28" width="968" height="960" filterUnits="userSpaceOnUse" color-interpolation-filters="sRGB">
<feFlood flood-opacity="0" result="BackgroundImageFix"/>
<feColorMatrix in="SourceAlpha" type="matrix" values="0 0 0 0 0 0 0 0 0 0 0 0 0 0 0 0 0 0 127 0" result="hardAlpha"/>
<feOffset dx="8" dy="8"/>
<feGaussianBlur stdDeviation="15"/>
<feComposite in2="hardAlpha" operator="out"/>
<feColorMatrix type="matrix" values="0 0 0 0 0 0 0 0 0 0 0 0 0 0 0 0 0 0 0.4 0"/>
<feBlend mode="normal" in2="BackgroundImageFix" result="effect1_dropShadow_33_2"/>
<feBlend mode="normal" in="SourceGraphic" in2="effect1_dropShadow_33_2" result="shape"/>
<feColorMatrix in="SourceAlpha" type="matrix" values="0 0 0 0 0 0 0 0 0 0 0 0 0 0 0 0 0 0 127 0" result="hardAlpha"/>
<feOffset dx="-30" dy="30"/>
<feGaussianBlur stdDeviation="125"/>
<feComposite in2="hardAlpha" operator="arithmetic" k2="-1" k3="1"/>
<feColorMatrix type="matrix" values="0 0 0 0 0 0 0 0 0 0 0 0 0 0 0 0 0 0 0.8 0"/>
<feBlend mode="normal" in2="shape" result="effect2_innerShadow_33_2"/>
</filter>
<filter id="filter2_d_33_2" x="34.0017" y="101" width="851.595" height="743.5" filterUnits="userSpaceOnUse" color-interpolation-filters="sRGB">
<feFlood flood-opacity="0" result="BackgroundImageFix"/>
<feColorMatrix in="SourceAlpha" type="matrix" values="0 0 0 0 0 0 0 0 0 0 0 0 0 0 0 0 0 0 127 0" result="hardAlpha"/>
<feOffset dx="-50" dy="20"/>
<feGaussianBlur stdDeviation="45"/>
<feComposite in2="hardAlpha" operator="out"/>
<feColorMatrix type="matrix" values="0 0 0 0 0 0 0 0 0 0 0 0 0 0 0 0 0 0 0.8 0"/>
<feBlend mode="normal" in2="BackgroundImageFix" result="effect1_dropShadow_33_2"/>
<feBlend mode="normal" in="SourceGraphic" in2="effect1_dropShadow_33_2" result="shape"/>
</filter>
<filter id="filter3_d_33_2" x="146" y="774.4" width="621.236" height="188.2" filterUnits="userSpaceOnUse" color-interpolation-filters="sRGB">
<feFlood flood-opacity="0" result="BackgroundImageFix"/>
<feColorMatrix in="SourceAlpha" type="matrix" values="0 0 0 0 0 0 0 0 0 0 0 0 0 0 0 0 0 0 127 0" result="hardAlpha"/>
<feOffset dx="-30" dy="20"/>
<feGaussianBlur stdDeviation="25"/>
<feComposite in2="hardAlpha" operator="out"/>
<feColorMatrix type="matrix" values="0 0 0 0 0 0 0 0 0 0 0 0 0 0 0 0 0 0 0.8 0"/>
<feBlend mode="normal" in2="BackgroundImageFix" result="effect1_dropShadow_33_2"/>
<feBlend mode="normal" in="SourceGraphic" in2="effect1_dropShadow_33_2" result="shape"/>
</filter>
<linearGradient id="paint0_linear_33_2" x1="33" y1="299" x2="2134" y2="645.5" gradientUnits="userSpaceOnUse">
<stop stop-color="#385561"/>
<stop offset="1" stop-color="#ABC3C8"/>
</linearGradient>
<linearGradient id="paint1_linear_33_2" x1="1121.5" y1="1185.5" x2="1.50002" y2="155" gradientUnits="userSpaceOnUse">
<stop stop-color="#5F8087"/>
<stop offset="1" stop-color="#1B2426"/>
</linearGradient>
</defs>
</svg>
